<?xml version="1.0" standalone="no"?>
 <!DOCTYPE svg PUBLIC "-//W3C//DTD SVG 1.1//EN" 
 "http://www.w3.org/Graphics/SVG/1.1/DTD/svg11.dtd"> 
<svg xmlns="http://www.w3.org/2000/svg" version="1.1" 
    width="2.51968cm" height="2.51968cm" viewBox="0 0 9920 9920 ">
<title>SVG Picture created as Micro T_Probe--brd.svg date 2013/07/23 19:52:49 </title>
  <desc>Picture generated by PCBNEW </desc>
<g style="fill:#000000; fill-opacity:1;stroke:#000000; stroke-opacity:1;
stroke-linecap:round; stroke-linejoin:round; "
 transform="translate(0 0) scale(1 1)">
</g>
<g style="fill:#C0C0C0; fill-opacity:0.0; 
stroke:#C0C0C0; stroke-width:78.7402; stroke-opacity:1; 
stroke-linecap:round; stroke-linejoin:round;">
<path d="M1889 7165
L1889 2440
" />
<path d="M4251 7165
L1889 7165
" />
<path d="M4251 2440
L4251 7165
" />
<path d="M1889 2440
L4251 2440
" />
<circle cx="4960.63" cy="4960.63" r="4921.26" /> 
</g>
<g style="fill:#808000; fill-opacity:0.0; 
stroke:#808000; stroke-width:39.3701; stroke-opacity:1; 
stroke-linecap:round; stroke-linejoin:round;">
</g>
<g style="fill:#808000; fill-opacity:1.0; 
stroke:#808000; stroke-width:39.3701; stroke-opacity:1; 
stroke-linecap:round; stroke-linejoin:round;">
<circle cx="3858.27" cy="2834.65" r="127.953" /> 
<circle cx="3464.57" cy="2834.65" r="127.953" /> 
<circle cx="3070.87" cy="2834.65" r="127.953" /> 
<circle cx="2677.17" cy="2834.65" r="127.953" /> 
<circle cx="2283.46" cy="2834.65" r="127.953" /> 
<circle cx="3858.27" cy="6771.65" r="127.953" /> 
<circle cx="3464.57" cy="6771.65" r="127.953" /> 
<circle cx="3070.87" cy="6771.65" r="127.953" /> 
<circle cx="2677.17" cy="6771.65" r="127.953" /> 
<circle cx="2283.46" cy="6771.65" r="127.953" /> 
</g>
<g style="fill:#00A000; fill-opacity:1.0; 
stroke:#00A000; stroke-width:39.3701; stroke-opacity:1; 
stroke-linecap:round; stroke-linejoin:round;">
<polyline style="fill-rule:evenodd;"
points="3897,2952
3897,6653
3818,6653
3818,2952
3897,2952
" /> 
<polyline style="fill-rule:evenodd;"
points="3503,2952
3503,6653
3425,6653
3425,2952
3503,2952
" /> 
<polyline style="fill-rule:evenodd;"
points="3110,2952
3110,6653
3031,6653
3031,2952
3110,2952
" /> 
<polyline style="fill-rule:evenodd;"
points="2716,2952
2716,6653
2637,6653
2637,2952
2716,2952
" /> 
<polyline style="fill-rule:evenodd;"
points="2322,2952
2322,6653
2244,6653
2244,2952
2322,2952
" /> 
</g>
<g style="fill:#A00000; fill-opacity:1.0; 
stroke:#A00000; stroke-width:39.3701; stroke-opacity:1; 
stroke-linecap:round; stroke-linejoin:round;">
<polyline style="fill-rule:evenodd;"
points="3415,4960
3415,5039
3278,5039
3278,4960
3415,4960
" /> 
<polyline style="fill-rule:evenodd;"
points="3415,4566
3415,4645
3278,4645
3278,4566
3415,4566
" /> 
<polyline style="fill-rule:evenodd;"
points="2864,4763
2864,4842
2726,4842
2726,4763
2864,4763
" /> 
<polyline style="fill-rule:evenodd;"
points="3415,4763
3415,4842
3278,4842
3278,4763
3415,4763
" /> 
<polyline style="fill-rule:evenodd;"
points="2863,4566
2863,4645
2726,4645
2726,4566
2863,4566
" /> 
<polyline style="fill-rule:evenodd;"
points="2864,4960
2864,5039
2726,5039
2726,4960
2864,4960
" /> 
<polyline style="fill-rule:evenodd;"
points="2665,3591
2665,3180
2876,3180
2876,3591
2665,3591
" /> 
<polyline style="fill-rule:evenodd;"
points="3265,3591
3265,3180
3476,3180
3476,3591
3265,3591
" /> 
<polyline style="fill-rule:evenodd;"
points="2665,6386
2665,5975
2876,5975
2876,6386
2665,6386
" /> 
<polyline style="fill-rule:evenodd;"
points="3265,6386
3265,5975
3476,5975
3476,6386
3265,6386
" /> 
<polyline style="fill-rule:evenodd;"
points="2665,5717
2665,5306
2876,5306
2876,5717
2665,5717
" /> 
<polyline style="fill-rule:evenodd;"
points="3265,5717
3265,5306
3476,5306
3476,5717
3265,5717
" /> 
<polyline style="fill-rule:evenodd;"
points="2665,4299
2665,3889
2876,3889
2876,4299
2665,4299
" /> 
<polyline style="fill-rule:evenodd;"
points="3265,4299
3265,3889
3476,3889
3476,4299
3265,4299
" /> 
<polyline style="fill-rule:evenodd;"
points="3917,3779
3799,3779
3799,3700
3917,3700
3917,3779
" /> 
<polyline style="fill-rule:evenodd;"
points="3917,3543
3799,3543
3799,3464
3917,3464
3917,3543
" /> 
<polyline style="fill-rule:evenodd;"
points="2224,5590
2342,5590
2342,5669
2224,5669
2224,5590
" /> 
<polyline style="fill-rule:evenodd;"
points="2224,5826
2342,5826
2342,5905
2224,5905
2224,5826
" /> 
<polyline style="fill-rule:evenodd;"
points="3799,5196
3917,5196
3917,5275
3799,5275
3799,5196
" /> 
<polyline style="fill-rule:evenodd;"
points="3799,5433
3917,5433
3917,5511
3799,5511
3799,5433
" /> 
<polyline style="fill-rule:evenodd;"
points="2342,3937
2224,3937
2224,3858
2342,3858
2342,3937
" /> 
<polyline style="fill-rule:evenodd;"
points="2342,3700
2224,3700
2224,3622
2342,3622
2342,3700
" /> 
</g>
<g style="fill:#C0C0C0; fill-opacity:1.0; 
stroke:#C0C0C0; stroke-width:39.3701; stroke-opacity:1; 
stroke-linecap:round; stroke-linejoin:round;">
<circle cx="3858.27" cy="4803.15" r="19.685" /> 
<circle cx="2283.46" cy="4330.71" r="19.685" /> 
<circle cx="2283.46" cy="6181.1" r="19.685" /> 
<circle cx="2283.46" cy="5275.59" r="19.685" /> 
<circle cx="2283.46" cy="4803.15" r="19.685" /> 
</g>
<g style="fill:#A00000; fill-opacity:1.0; 
stroke:#A00000; stroke-width:39.3701; stroke-opacity:1; 
stroke-linecap:round; stroke-linejoin:round;">
<path d="M3858 5236
L3897 5236
" />
<path d="M4055 3937
L3858 3740
" />
<path d="M4055 5078
L4055 3937
" />
<path d="M3897 5236
L4055 5078
" />
<path d="M2794 4606
L3070 4606
" />
<path d="M3740 3740
L3858 3740
" />
<path d="M3700 3740
L3740 3740
" />
<path d="M3070 3740
L3700 3740
" />
<path d="M3070 4606
L3070 3740
" />
<path d="M3070 4606
L3070 4606
" />
<path d="M2794 4606
L2086 4606
" />
<path d="M2086 4606
L2086 4606
" />
<path d="M2283 3897
L2244 3897
" />
<path d="M2086 5433
L2283 5629
" />
<path d="M2086 4055
L2086 4606
" />
<path d="M2086 4606
L2086 5433
" />
<path d="M2244 3897
L2086 4055
" />
<path d="M3346 4606
L3622 4606
" />
<path d="M3449 4015
L3370 4094
" />
<path d="M3503 4015
L3449 4015
" />
<path d="M3858 4370
L3503 4015
" />
<path d="M3622 4606
L3858 4370
" />
<path d="M3346 4803
L3425 4803
" />
<path d="M3425 4803
L3858 4803
" />
<path d="M3370 5511
L3818 5511
" />
<path d="M3818 5511
L3858 5472
" />
<path d="M3346 5000
L3346 5487
" />
<path d="M3346 5487
L3370 5511
" />
<path d="M2795 5000
L3070 5000
" />
<path d="M3070 6181
L3370 6181
" />
<path d="M3070 5000
L3070 6181
" />
<path d="M2770 4094
L2770 4306
" />
</g>
<g style="fill:#00A000; fill-opacity:1.0; 
stroke:#00A000; stroke-width:39.3701; stroke-opacity:1; 
stroke-linecap:round; stroke-linejoin:round;">
<path d="M2283 4330
L2283 4803
" />
</g>
<g style="fill:#A00000; fill-opacity:1.0; 
stroke:#A00000; stroke-width:39.3701; stroke-opacity:1; 
stroke-linecap:round; stroke-linejoin:round;">
<path d="M2746 4330
L2283 4330
" />
<path d="M2770 4306
L2746 4330
" />
<path d="M2770 6181
L2283 6181
" />
</g>
<g style="fill:#00A000; fill-opacity:1.0; 
stroke:#00A000; stroke-width:39.3701; stroke-opacity:1; 
stroke-linecap:round; stroke-linejoin:round;">
<path d="M2283 6181
L2283 4803
" />
</g>
<g style="fill:#A00000; fill-opacity:1.0; 
stroke:#A00000; stroke-width:39.3701; stroke-opacity:1; 
stroke-linecap:round; stroke-linejoin:round;">
<path d="M2770 5511
L2770 5300
" />
</g>
<g style="fill:#00A000; fill-opacity:1.0; 
stroke:#00A000; stroke-width:39.3701; stroke-opacity:1; 
stroke-linecap:round; stroke-linejoin:round;">
<path d="M2283 5275
L2283 4803
" />
</g>
<g style="fill:#A00000; fill-opacity:1.0; 
stroke:#A00000; stroke-width:39.3701; stroke-opacity:1; 
stroke-linecap:round; stroke-linejoin:round;">
<path d="M2746 5275
L2283 5275
" />
<path d="M2770 5300
L2746 5275
" />
<path d="M2283 4803
L2795 4803
" />
</g>
<g style="fill:#FFFFFF; fill-opacity:1.0; 
stroke:#FFFFFF; stroke-width:39.3701; stroke-opacity:1; 
stroke-linecap:round; stroke-linejoin:round;">
<circle cx="3858.27" cy="4803.15" r="0" /> 
<circle cx="2283.46" cy="4330.71" r="0" /> 
<circle cx="2283.46" cy="6181.1" r="0" /> 
<circle cx="2283.46" cy="5275.59" r="0" /> 
<circle cx="2283.46" cy="4803.15" r="0" /> 
<circle cx="3858.27" cy="2834.65" r="39.3701" /> 
<circle cx="3464.57" cy="2834.65" r="39.3701" /> 
<circle cx="3070.87" cy="2834.65" r="39.3701" /> 
<circle cx="2677.17" cy="2834.65" r="39.3701" /> 
<circle cx="2283.46" cy="2834.65" r="39.3701" /> 
<circle cx="3858.27" cy="6771.65" r="39.3701" /> 
<circle cx="3464.57" cy="6771.65" r="39.3701" /> 
<circle cx="3070.87" cy="6771.65" r="39.3701" /> 
<circle cx="2677.17" cy="6771.65" r="39.3701" /> 
<circle cx="2283.46" cy="6771.65" r="39.3701" /> 
</g> 
</svg>
