G04 (created by PCBNEW (2013-may-18)-stable) date Sat 02 Aug 2014 09:36:16 PM CDT*
%MOIN*%
G04 Gerber Fmt 3.4, Leading zero omitted, Abs format*
%FSLAX34Y34*%
G01*
G70*
G90*
G04 APERTURE LIST*
%ADD10C,0.00590551*%
%ADD11C,0.005*%
G04 APERTURE END LIST*
G54D10*
G54D11*
X10921Y-13457D02*
X10930Y-13485D01*
X10930Y-13533D01*
X10921Y-13552D01*
X10911Y-13561D01*
X10892Y-13571D01*
X10873Y-13571D01*
X10854Y-13561D01*
X10845Y-13552D01*
X10835Y-13533D01*
X10826Y-13495D01*
X10816Y-13476D01*
X10807Y-13466D01*
X10788Y-13457D01*
X10769Y-13457D01*
X10750Y-13466D01*
X10740Y-13476D01*
X10730Y-13495D01*
X10730Y-13542D01*
X10740Y-13571D01*
X10930Y-13657D02*
X10730Y-13657D01*
X10730Y-13704D01*
X10740Y-13733D01*
X10759Y-13752D01*
X10778Y-13761D01*
X10816Y-13771D01*
X10845Y-13771D01*
X10883Y-13761D01*
X10902Y-13752D01*
X10921Y-13733D01*
X10930Y-13704D01*
X10930Y-13657D01*
X10873Y-13847D02*
X10873Y-13942D01*
X10930Y-13828D02*
X10730Y-13895D01*
X10930Y-13961D01*
X10330Y-12433D02*
X10530Y-12500D01*
X10330Y-12566D01*
X10511Y-12747D02*
X10521Y-12738D01*
X10530Y-12709D01*
X10530Y-12690D01*
X10521Y-12661D01*
X10502Y-12642D01*
X10483Y-12633D01*
X10445Y-12623D01*
X10416Y-12623D01*
X10378Y-12633D01*
X10359Y-12642D01*
X10340Y-12661D01*
X10330Y-12690D01*
X10330Y-12709D01*
X10340Y-12738D01*
X10350Y-12747D01*
X10511Y-12947D02*
X10521Y-12938D01*
X10530Y-12909D01*
X10530Y-12890D01*
X10521Y-12861D01*
X10502Y-12842D01*
X10483Y-12833D01*
X10445Y-12823D01*
X10416Y-12823D01*
X10378Y-12833D01*
X10359Y-12842D01*
X10340Y-12861D01*
X10330Y-12890D01*
X10330Y-12909D01*
X10340Y-12938D01*
X10350Y-12947D01*
X11371Y-11811D02*
X11380Y-11840D01*
X11380Y-11888D01*
X11371Y-11907D01*
X11361Y-11916D01*
X11342Y-11926D01*
X11323Y-11926D01*
X11304Y-11916D01*
X11295Y-11907D01*
X11285Y-11888D01*
X11276Y-11850D01*
X11266Y-11830D01*
X11257Y-11821D01*
X11238Y-11811D01*
X11219Y-11811D01*
X11200Y-11821D01*
X11190Y-11830D01*
X11180Y-11850D01*
X11180Y-11897D01*
X11190Y-11926D01*
X11361Y-12126D02*
X11371Y-12116D01*
X11380Y-12088D01*
X11380Y-12069D01*
X11371Y-12040D01*
X11352Y-12021D01*
X11333Y-12011D01*
X11295Y-12002D01*
X11266Y-12002D01*
X11228Y-12011D01*
X11209Y-12021D01*
X11190Y-12040D01*
X11180Y-12069D01*
X11180Y-12088D01*
X11190Y-12116D01*
X11200Y-12126D01*
X11380Y-12307D02*
X11380Y-12211D01*
X11180Y-12211D01*
X11673Y-12754D02*
X11673Y-12850D01*
X11730Y-12735D02*
X11530Y-12802D01*
X11730Y-12869D01*
X11730Y-13030D02*
X11730Y-12935D01*
X11530Y-12935D01*
X11626Y-13097D02*
X11626Y-13164D01*
X11730Y-13192D02*
X11730Y-13097D01*
X11530Y-13097D01*
X11530Y-13192D01*
X11730Y-13392D02*
X11635Y-13326D01*
X11730Y-13278D02*
X11530Y-13278D01*
X11530Y-13354D01*
X11540Y-13373D01*
X11550Y-13383D01*
X11569Y-13392D01*
X11597Y-13392D01*
X11616Y-13383D01*
X11626Y-13373D01*
X11635Y-13354D01*
X11635Y-13278D01*
X11530Y-13450D02*
X11530Y-13564D01*
X11730Y-13507D02*
X11530Y-13507D01*
X11940Y-13597D02*
X11930Y-13578D01*
X11930Y-13550D01*
X11940Y-13521D01*
X11959Y-13502D01*
X11978Y-13492D01*
X12016Y-13483D01*
X12045Y-13483D01*
X12083Y-13492D01*
X12102Y-13502D01*
X12121Y-13521D01*
X12130Y-13550D01*
X12130Y-13569D01*
X12121Y-13597D01*
X12111Y-13607D01*
X12045Y-13607D01*
X12045Y-13569D01*
X12130Y-13692D02*
X11930Y-13692D01*
X12130Y-13807D01*
X11930Y-13807D01*
X12130Y-13902D02*
X11930Y-13902D01*
X11930Y-13950D01*
X11940Y-13978D01*
X11959Y-13997D01*
X11978Y-14007D01*
X12016Y-14016D01*
X12045Y-14016D01*
X12083Y-14007D01*
X12102Y-13997D01*
X12121Y-13978D01*
X12130Y-13950D01*
X12130Y-13902D01*
M02*
