G04 (created by PCBNEW (2013-may-18)-stable) date Wed 07 Aug 2013 08:32:57 AM CDT*
%MOIN*%
G04 Gerber Fmt 3.4, Leading zero omitted, Abs format*
%FSLAX34Y34*%
G01*
G70*
G90*
G04 APERTURE LIST*
%ADD10C,0.00590551*%
%ADD11C,0.045*%
%ADD12R,0.0177X0.0118*%
%ADD13R,0.025X0.045*%
%ADD14C,0.02*%
%ADD15C,0.006*%
%ADD16C,0.02*%
G04 APERTURE END LIST*
G54D10*
G54D11*
X12037Y-10850D03*
X11643Y-10456D03*
X11250Y-10850D03*
X10856Y-10456D03*
X10462Y-10850D03*
G54D12*
X11525Y-12948D03*
X11525Y-12554D03*
X10974Y-12751D03*
X11525Y-12751D03*
X10973Y-12554D03*
X10974Y-12947D03*
G54D13*
X10950Y-11400D03*
X11550Y-11400D03*
X10950Y-14000D03*
X11550Y-14000D03*
X11550Y-13400D03*
X10950Y-13400D03*
X10950Y-12050D03*
X11550Y-12050D03*
G54D10*
G36*
X10587Y-12397D02*
X10537Y-12517D01*
X10387Y-12517D01*
X10337Y-12397D01*
X10587Y-12397D01*
X10587Y-12397D01*
G37*
G36*
X10337Y-12317D02*
X10387Y-12197D01*
X10537Y-12197D01*
X10587Y-12317D01*
X10337Y-12317D01*
X10337Y-12317D01*
G37*
G36*
X12162Y-11511D02*
X12112Y-11631D01*
X11962Y-11631D01*
X11912Y-11511D01*
X12162Y-11511D01*
X12162Y-11511D01*
G37*
G36*
X11912Y-11431D02*
X11962Y-11311D01*
X12112Y-11311D01*
X12162Y-11431D01*
X11912Y-11431D01*
X11912Y-11431D01*
G37*
G36*
X12080Y-13175D02*
X12200Y-13225D01*
X12200Y-13375D01*
X12080Y-13425D01*
X12080Y-13175D01*
X12080Y-13175D01*
G37*
G36*
X12000Y-13425D02*
X11880Y-13375D01*
X11880Y-13225D01*
X12000Y-13175D01*
X12000Y-13425D01*
X12000Y-13425D01*
G37*
G36*
X11920Y-13925D02*
X11970Y-13805D01*
X12120Y-13805D01*
X12170Y-13925D01*
X11920Y-13925D01*
X11920Y-13925D01*
G37*
G36*
X12170Y-14005D02*
X12120Y-14125D01*
X11970Y-14125D01*
X11920Y-14005D01*
X12170Y-14005D01*
X12170Y-14005D01*
G37*
G54D11*
X12037Y-15050D03*
X11643Y-14656D03*
X11250Y-15050D03*
X10856Y-14656D03*
X10462Y-15050D03*
G54D14*
X11660Y-12400D03*
X12040Y-12760D03*
X11260Y-13400D03*
X10760Y-13020D03*
X10460Y-12040D03*
X10462Y-13400D03*
X10460Y-14000D03*
G54D15*
X12140Y-13300D02*
X12140Y-13770D01*
X12140Y-13770D02*
X12045Y-13865D01*
X10973Y-12554D02*
X11065Y-12554D01*
X11888Y-11720D02*
X12037Y-11571D01*
X11340Y-11720D02*
X11888Y-11720D01*
X11260Y-11800D02*
X11340Y-11720D01*
X11260Y-12360D02*
X11260Y-11800D01*
X11065Y-12554D02*
X11260Y-12360D01*
X12037Y-11571D02*
X12037Y-12457D01*
X12240Y-13200D02*
X12140Y-13300D01*
X12240Y-12660D02*
X12240Y-13200D01*
X12037Y-12457D02*
X12240Y-12660D01*
X10462Y-12457D02*
X10877Y-12457D01*
X10877Y-12457D02*
X10973Y-12554D01*
X11660Y-12400D02*
X11660Y-12419D01*
X11660Y-12419D02*
X11525Y-12554D01*
G54D16*
X11550Y-12050D02*
X11550Y-12290D01*
X11550Y-12290D02*
X11660Y-12400D01*
G54D15*
X12037Y-11371D02*
X12037Y-10850D01*
X12037Y-10850D02*
X12037Y-10850D01*
X11525Y-12751D02*
X12031Y-12751D01*
X12031Y-12751D02*
X12040Y-12760D01*
X11550Y-11400D02*
X11550Y-11337D01*
G54D16*
X11550Y-11337D02*
X12037Y-10850D01*
X11550Y-13400D02*
X11260Y-13400D01*
G54D15*
X11525Y-12948D02*
X11525Y-13375D01*
X11525Y-13375D02*
X11550Y-13400D01*
X11550Y-13400D02*
X11840Y-13400D01*
X11840Y-13400D02*
X11940Y-13300D01*
X10974Y-12947D02*
X10832Y-12947D01*
X10832Y-12947D02*
X10760Y-13020D01*
X11550Y-14000D02*
X11700Y-14000D01*
X11765Y-14065D02*
X12045Y-14065D01*
X11700Y-14000D02*
X11765Y-14065D01*
X11550Y-14000D02*
X11512Y-14000D01*
X11512Y-14000D02*
X10856Y-14656D01*
X10974Y-12751D02*
X10528Y-12751D01*
X10462Y-12817D02*
X10462Y-13400D01*
X10528Y-12751D02*
X10462Y-12817D01*
X10460Y-12040D02*
X10460Y-12254D01*
X10460Y-12254D02*
X10462Y-12257D01*
G54D16*
X10950Y-12050D02*
X10470Y-12050D01*
G54D15*
X10470Y-12050D02*
X10460Y-12040D01*
G54D16*
X10950Y-13400D02*
X10460Y-13400D01*
G54D15*
X10460Y-13400D02*
X10462Y-13400D01*
G54D16*
X10950Y-14000D02*
X10460Y-14000D01*
G54D15*
X10950Y-11400D02*
X10950Y-11337D01*
G54D16*
X10950Y-11337D02*
X10462Y-10850D01*
M02*
