G04 (created by PCBNEW (2013-may-18)-stable) date Sat 02 Aug 2014 09:36:16 PM CDT*
%MOIN*%
G04 Gerber Fmt 3.4, Leading zero omitted, Abs format*
%FSLAX34Y34*%
G01*
G70*
G90*
G04 APERTURE LIST*
%ADD10C,0.00590551*%
%ADD11R,0.0472441X0.0118*%
%ADD12C,0.045*%
%ADD13R,0.0393701X0.045*%
%ADD14C,0.02*%
%ADD15C,0.006*%
%ADD16C,0.02*%
G04 APERTURE END LIST*
G54D10*
G54D11*
X11663Y-12948D03*
X11663Y-12554D03*
X10836Y-12751D03*
X11663Y-12751D03*
X10836Y-12554D03*
X10836Y-12947D03*
G54D12*
X12037Y-15050D03*
X11643Y-14656D03*
X11250Y-15050D03*
X10856Y-14656D03*
X10462Y-15050D03*
G54D10*
G36*
X12140Y-13885D02*
X12260Y-13935D01*
X12260Y-14085D01*
X12140Y-14135D01*
X12140Y-13885D01*
X12140Y-13885D01*
G37*
G36*
X12060Y-14135D02*
X11940Y-14085D01*
X11940Y-13935D01*
X12060Y-13885D01*
X12060Y-14135D01*
X12060Y-14135D01*
G37*
G36*
X12140Y-13185D02*
X12260Y-13235D01*
X12260Y-13385D01*
X12140Y-13435D01*
X12140Y-13185D01*
X12140Y-13185D01*
G37*
G36*
X12060Y-13435D02*
X11940Y-13385D01*
X11940Y-13235D01*
X12060Y-13185D01*
X12060Y-13435D01*
X12060Y-13435D01*
G37*
G36*
X12265Y-11510D02*
X12215Y-11630D01*
X12065Y-11630D01*
X12015Y-11510D01*
X12265Y-11510D01*
X12265Y-11510D01*
G37*
G36*
X12015Y-11430D02*
X12065Y-11310D01*
X12215Y-11310D01*
X12265Y-11430D01*
X12015Y-11430D01*
X12015Y-11430D01*
G37*
G54D12*
X12037Y-10850D03*
X11643Y-10456D03*
X11250Y-10850D03*
X10856Y-10456D03*
X10462Y-10850D03*
G54D10*
G36*
X10485Y-12250D02*
X10435Y-12370D01*
X10285Y-12370D01*
X10235Y-12250D01*
X10485Y-12250D01*
X10485Y-12250D01*
G37*
G36*
X10235Y-12170D02*
X10285Y-12050D01*
X10435Y-12050D01*
X10485Y-12170D01*
X10235Y-12170D01*
X10235Y-12170D01*
G37*
G54D13*
X10871Y-13400D03*
X11628Y-13400D03*
X10871Y-12050D03*
X11628Y-12050D03*
X10871Y-11400D03*
X11628Y-11400D03*
X10871Y-14000D03*
X11628Y-14000D03*
G54D14*
X11660Y-12400D03*
X12040Y-12760D03*
X11260Y-13400D03*
X10870Y-12990D03*
X10460Y-11750D03*
X10462Y-13400D03*
X10460Y-14000D03*
G54D15*
X12200Y-13310D02*
X12200Y-14010D01*
X12240Y-11670D02*
X12240Y-13270D01*
X12140Y-11570D02*
X12240Y-11670D01*
X12240Y-13270D02*
X12200Y-13310D01*
X10973Y-12554D02*
X11085Y-12554D01*
X11980Y-11730D02*
X12140Y-11570D01*
X11330Y-11730D02*
X11980Y-11730D01*
X11270Y-11790D02*
X11330Y-11730D01*
X11270Y-12370D02*
X11270Y-11790D01*
X11085Y-12554D02*
X11270Y-12370D01*
X10973Y-12554D02*
X10534Y-12554D01*
X10360Y-12380D02*
X10360Y-12310D01*
X10534Y-12554D02*
X10360Y-12380D01*
X11660Y-12400D02*
X11660Y-12419D01*
X11660Y-12419D02*
X11525Y-12554D01*
G54D16*
X11550Y-12050D02*
X11550Y-12290D01*
X11550Y-12290D02*
X11660Y-12400D01*
G54D15*
X12140Y-11370D02*
X12140Y-10952D01*
X12140Y-10952D02*
X12037Y-10850D01*
X11525Y-12751D02*
X12031Y-12751D01*
X12031Y-12751D02*
X12040Y-12760D01*
X11550Y-11400D02*
X11550Y-11337D01*
G54D16*
X11550Y-11337D02*
X12037Y-10850D01*
G54D15*
X12000Y-13310D02*
X11640Y-13310D01*
X11640Y-13310D02*
X11550Y-13400D01*
X11525Y-12948D02*
X11525Y-13375D01*
G54D16*
X11550Y-13400D02*
X11260Y-13400D01*
G54D15*
X11525Y-13375D02*
X11550Y-13400D01*
X10912Y-12947D02*
X10974Y-12947D01*
X10870Y-12990D02*
X10912Y-12947D01*
X12000Y-14010D02*
X11560Y-14010D01*
X11560Y-14010D02*
X11550Y-14000D01*
X11550Y-14000D02*
X11512Y-14000D01*
X11512Y-14000D02*
X10856Y-14656D01*
X10360Y-12110D02*
X10360Y-11850D01*
G54D16*
X10760Y-12050D02*
X10460Y-11750D01*
X10760Y-12050D02*
X10950Y-12050D01*
G54D15*
X10360Y-11850D02*
X10460Y-11750D01*
G54D16*
X10950Y-13400D02*
X10460Y-13400D01*
G54D15*
X10462Y-12817D02*
X10462Y-13400D01*
X10460Y-13400D02*
X10462Y-13400D01*
X10974Y-12751D02*
X10528Y-12751D01*
X10528Y-12751D02*
X10462Y-12817D01*
G54D16*
X10950Y-14000D02*
X10460Y-14000D01*
G54D15*
X10950Y-11400D02*
X10950Y-11337D01*
G54D16*
X10950Y-11337D02*
X10462Y-10850D01*
M02*
