G04 (created by PCBNEW (2013-may-18)-stable) date Sat 02 Aug 2014 09:36:16 PM CDT*
%MOIN*%
G04 Gerber Fmt 3.4, Leading zero omitted, Abs format*
%FSLAX34Y34*%
G01*
G70*
G90*
G04 APERTURE LIST*
%ADD10C,0.00590551*%
%ADD11C,0.045*%
%ADD12C,0.02*%
%ADD13C,0.02*%
%ADD14C,0.006*%
G04 APERTURE END LIST*
G54D10*
G54D11*
X12037Y-15050D03*
X11643Y-14656D03*
X11250Y-15050D03*
X10856Y-14656D03*
X10462Y-15050D03*
X12037Y-10850D03*
X11643Y-10456D03*
X11250Y-10850D03*
X10856Y-10456D03*
X10462Y-10850D03*
G54D12*
X11660Y-12400D03*
X12040Y-12760D03*
X11260Y-13400D03*
X10870Y-12990D03*
X10460Y-11750D03*
X10462Y-13400D03*
X10460Y-14000D03*
G54D13*
X11660Y-12400D02*
X11643Y-12400D01*
X11643Y-12400D02*
X11660Y-12400D01*
X11660Y-12400D02*
X11643Y-12400D01*
X11643Y-10456D02*
X11643Y-12400D01*
X11643Y-12400D02*
X11643Y-14656D01*
G54D14*
X12040Y-12760D02*
X12037Y-12760D01*
X12037Y-12760D02*
X12040Y-12760D01*
X12040Y-12760D02*
X12037Y-12760D01*
G54D13*
X12037Y-10850D02*
X12037Y-12760D01*
X12037Y-12760D02*
X12037Y-15050D01*
X11250Y-10850D02*
X11250Y-13400D01*
X11250Y-13400D02*
X11250Y-15050D01*
X11260Y-13400D02*
X11250Y-13400D01*
X11250Y-13400D02*
X11260Y-13400D01*
X11260Y-13400D02*
X11250Y-13400D01*
G54D14*
X10856Y-12960D02*
X10856Y-12976D01*
X10856Y-12976D02*
X10870Y-12990D01*
G54D13*
X10856Y-10456D02*
X10856Y-12960D01*
X10856Y-12960D02*
X10856Y-13020D01*
X10856Y-13020D02*
X10856Y-14656D01*
X10462Y-13400D02*
X10462Y-14000D01*
G54D14*
X10460Y-11780D02*
X10460Y-12260D01*
X10460Y-12260D02*
X10462Y-12260D01*
X10460Y-11780D02*
X10462Y-11780D01*
X10462Y-11780D02*
X10460Y-11780D01*
X10460Y-11780D02*
X10462Y-11780D01*
X10460Y-14000D02*
X10450Y-14000D01*
X10450Y-14000D02*
X10462Y-14000D01*
X10462Y-14000D02*
X10450Y-14000D01*
X10450Y-14000D02*
X10462Y-14000D01*
G54D13*
X10462Y-10850D02*
X10462Y-11780D01*
X10462Y-11780D02*
X10462Y-12260D01*
X10462Y-12260D02*
X10462Y-13400D01*
X10462Y-14000D02*
X10462Y-15050D01*
M02*
