G04 (created by PCBNEW (2013-may-18)-stable) date Wed 07 Aug 2013 08:32:57 AM CDT*
%MOIN*%
G04 Gerber Fmt 3.4, Leading zero omitted, Abs format*
%FSLAX34Y34*%
G01*
G70*
G90*
G04 APERTURE LIST*
%ADD10C,0.00590551*%
%ADD11C,0.0039*%
%ADD12C,0.0047*%
%ADD13C,0.005*%
%ADD14C,0.004*%
%ADD15C,0.0045*%
G04 APERTURE END LIST*
G54D10*
G54D11*
X11662Y-13086D02*
X10836Y-13086D01*
X10836Y-13086D02*
X10836Y-12416D01*
X10836Y-12416D02*
X11662Y-12416D01*
X11662Y-12416D02*
X11662Y-13086D01*
G54D12*
X11447Y-11656D02*
X11722Y-11656D01*
X11053Y-11656D02*
X10778Y-11656D01*
X11447Y-11144D02*
X11722Y-11144D01*
X10778Y-11144D02*
X11053Y-11144D01*
X11722Y-11150D02*
X11722Y-11650D01*
X10778Y-11650D02*
X10778Y-11150D01*
G54D13*
X10800Y-13750D02*
X11700Y-13750D01*
X11700Y-13750D02*
X11700Y-14250D01*
X11700Y-14250D02*
X10800Y-14250D01*
X10800Y-14250D02*
X10800Y-13750D01*
X11700Y-13650D02*
X10800Y-13650D01*
X10800Y-13650D02*
X10800Y-13150D01*
X10800Y-13150D02*
X11700Y-13150D01*
X11700Y-13150D02*
X11700Y-13650D01*
X10800Y-11800D02*
X11700Y-11800D01*
X11700Y-11800D02*
X11700Y-12300D01*
X11700Y-12300D02*
X10800Y-12300D01*
X10800Y-12300D02*
X10800Y-11800D01*
G54D14*
X10192Y-10430D02*
X10192Y-10230D01*
X10268Y-10230D01*
X10287Y-10240D01*
X10297Y-10250D01*
X10306Y-10269D01*
X10306Y-10297D01*
X10297Y-10316D01*
X10287Y-10326D01*
X10268Y-10335D01*
X10192Y-10335D01*
X10382Y-10250D02*
X10392Y-10240D01*
X10411Y-10230D01*
X10459Y-10230D01*
X10478Y-10240D01*
X10487Y-10250D01*
X10497Y-10269D01*
X10497Y-10288D01*
X10487Y-10316D01*
X10373Y-10430D01*
X10497Y-10430D01*
G54D11*
X11732Y-12800D02*
X11892Y-12800D01*
X11910Y-12790D01*
X11920Y-12781D01*
X11929Y-12762D01*
X11929Y-12725D01*
X11920Y-12706D01*
X11910Y-12696D01*
X11892Y-12687D01*
X11732Y-12687D01*
X11929Y-12490D02*
X11929Y-12603D01*
X11929Y-12546D02*
X11732Y-12546D01*
X11760Y-12565D01*
X11779Y-12584D01*
X11789Y-12603D01*
G54D15*
X10661Y-11430D02*
X10671Y-11438D01*
X10680Y-11464D01*
X10680Y-11481D01*
X10671Y-11507D01*
X10652Y-11524D01*
X10633Y-11532D01*
X10595Y-11541D01*
X10566Y-11541D01*
X10528Y-11532D01*
X10509Y-11524D01*
X10490Y-11507D01*
X10480Y-11481D01*
X10480Y-11464D01*
X10490Y-11438D01*
X10500Y-11430D01*
X10680Y-11258D02*
X10680Y-11361D01*
X10680Y-11310D02*
X10480Y-11310D01*
X10509Y-11327D01*
X10528Y-11344D01*
X10538Y-11361D01*
X10730Y-14280D02*
X10635Y-14340D01*
X10730Y-14382D02*
X10530Y-14382D01*
X10530Y-14314D01*
X10540Y-14297D01*
X10550Y-14288D01*
X10569Y-14280D01*
X10597Y-14280D01*
X10616Y-14288D01*
X10626Y-14297D01*
X10635Y-14314D01*
X10635Y-14382D01*
X10550Y-14211D02*
X10540Y-14202D01*
X10530Y-14185D01*
X10530Y-14142D01*
X10540Y-14125D01*
X10550Y-14117D01*
X10569Y-14108D01*
X10588Y-14108D01*
X10616Y-14117D01*
X10730Y-14220D01*
X10730Y-14108D01*
X10730Y-13680D02*
X10635Y-13740D01*
X10730Y-13782D02*
X10530Y-13782D01*
X10530Y-13714D01*
X10540Y-13697D01*
X10550Y-13688D01*
X10569Y-13680D01*
X10597Y-13680D01*
X10616Y-13688D01*
X10626Y-13697D01*
X10635Y-13714D01*
X10635Y-13782D01*
X10730Y-13508D02*
X10730Y-13611D01*
X10730Y-13560D02*
X10530Y-13560D01*
X10559Y-13577D01*
X10578Y-13594D01*
X10588Y-13611D01*
X10730Y-11830D02*
X10635Y-11890D01*
X10730Y-11932D02*
X10530Y-11932D01*
X10530Y-11864D01*
X10540Y-11847D01*
X10550Y-11838D01*
X10569Y-11830D01*
X10597Y-11830D01*
X10616Y-11838D01*
X10626Y-11847D01*
X10635Y-11864D01*
X10635Y-11932D01*
X10530Y-11770D02*
X10530Y-11658D01*
X10607Y-11718D01*
X10607Y-11692D01*
X10616Y-11675D01*
X10626Y-11667D01*
X10645Y-11658D01*
X10692Y-11658D01*
X10711Y-11667D01*
X10721Y-11675D01*
X10730Y-11692D01*
X10730Y-11744D01*
X10721Y-11761D01*
X10711Y-11770D01*
G54D13*
X10295Y-12630D02*
X10314Y-12630D01*
X10333Y-12640D01*
X10342Y-12650D01*
X10352Y-12669D01*
X10361Y-12707D01*
X10361Y-12754D01*
X10352Y-12792D01*
X10342Y-12811D01*
X10333Y-12821D01*
X10314Y-12830D01*
X10295Y-12830D01*
X10276Y-12821D01*
X10266Y-12811D01*
X10257Y-12792D01*
X10247Y-12754D01*
X10247Y-12707D01*
X10257Y-12669D01*
X10266Y-12650D01*
X10276Y-12640D01*
X10295Y-12630D01*
X10552Y-12830D02*
X10438Y-12830D01*
X10495Y-12830D02*
X10495Y-12630D01*
X10476Y-12659D01*
X10457Y-12678D01*
X10438Y-12688D01*
X11945Y-11780D02*
X11964Y-11780D01*
X11983Y-11790D01*
X11992Y-11800D01*
X12002Y-11819D01*
X12011Y-11857D01*
X12011Y-11904D01*
X12002Y-11942D01*
X11992Y-11961D01*
X11983Y-11971D01*
X11964Y-11980D01*
X11945Y-11980D01*
X11926Y-11971D01*
X11916Y-11961D01*
X11907Y-11942D01*
X11897Y-11904D01*
X11897Y-11857D01*
X11907Y-11819D01*
X11916Y-11800D01*
X11926Y-11790D01*
X11945Y-11780D01*
X12135Y-11780D02*
X12154Y-11780D01*
X12173Y-11790D01*
X12183Y-11800D01*
X12192Y-11819D01*
X12202Y-11857D01*
X12202Y-11904D01*
X12192Y-11942D01*
X12183Y-11961D01*
X12173Y-11971D01*
X12154Y-11980D01*
X12135Y-11980D01*
X12116Y-11971D01*
X12107Y-11961D01*
X12097Y-11942D01*
X12088Y-11904D01*
X12088Y-11857D01*
X12097Y-11819D01*
X12107Y-11800D01*
X12116Y-11790D01*
X12135Y-11780D01*
X12011Y-13080D02*
X11897Y-13080D01*
X11954Y-13080D02*
X11954Y-12880D01*
X11935Y-12909D01*
X11916Y-12928D01*
X11897Y-12938D01*
X12202Y-13080D02*
X12088Y-13080D01*
X12145Y-13080D02*
X12145Y-12880D01*
X12126Y-12909D01*
X12107Y-12928D01*
X12088Y-12938D01*
X12061Y-14430D02*
X11947Y-14430D01*
X12004Y-14430D02*
X12004Y-14230D01*
X11985Y-14259D01*
X11966Y-14278D01*
X11947Y-14288D01*
X12185Y-14230D02*
X12204Y-14230D01*
X12223Y-14240D01*
X12233Y-14250D01*
X12242Y-14269D01*
X12252Y-14307D01*
X12252Y-14354D01*
X12242Y-14392D01*
X12233Y-14411D01*
X12223Y-14421D01*
X12204Y-14430D01*
X12185Y-14430D01*
X12166Y-14421D01*
X12157Y-14411D01*
X12147Y-14392D01*
X12138Y-14354D01*
X12138Y-14307D01*
X12147Y-14269D01*
X12157Y-14250D01*
X12166Y-14240D01*
X12185Y-14230D01*
G54D14*
X10192Y-14630D02*
X10192Y-14430D01*
X10268Y-14430D01*
X10287Y-14440D01*
X10297Y-14450D01*
X10306Y-14469D01*
X10306Y-14497D01*
X10297Y-14516D01*
X10287Y-14526D01*
X10268Y-14535D01*
X10192Y-14535D01*
X10497Y-14630D02*
X10382Y-14630D01*
X10440Y-14630D02*
X10440Y-14430D01*
X10420Y-14459D01*
X10401Y-14478D01*
X10382Y-14488D01*
M02*
